<?xml version="1.0" encoding="UTF-8"?>
<svg viewBox="0 0 560 250" xmlns="http://www.w3.org/2000/svg" font-family="{{FONT}}">
<rect x="40.0" y="38.0" width="220.5" height="48.0" rx="4" fill="#2a78d6" fill-opacity="0.175"/>
<text x="150.2" y="65.0" font-size="8.5" fill="#0b0b0b" text-anchor="middle" font-weight="600">alap</text>
<rect x="260.5" y="38.0" width="122.5" height="48.0" rx="4" fill="#2a78d6" fill-opacity="0.3"/>
<text x="321.8" y="65.0" font-size="8.5" fill="#0b0b0b" text-anchor="middle" font-weight="600">építés (2+1 / 3+1)</text>
<rect x="383.0" y="38.0" width="85.8" height="48.0" rx="4" fill="#eb6834" fill-opacity="0.375"/>
<text x="425.9" y="65.0" font-size="8.5" fill="#0b0b0b" text-anchor="middle" font-weight="600">specifikus csúcs</text>
<rect x="468.8" y="38.0" width="61.2" height="48.0" rx="4" fill="#1baf7a" fill-opacity="0.3"/>
<text x="499.4" y="65.0" font-size="8.5" fill="#0b0b0b" text-anchor="middle" font-weight="600">taper (10–21 nap)</text>
<line x1="40.0" y1="88.0" x2="40.0" y2="93.0" stroke="#c3c2b7" stroke-width="1" stroke-linecap="round"/>
<text x="40.0" y="105.0" font-size="7.5" fill="#898781" text-anchor="middle" font-weight="400">-20</text>
<line x1="89.0" y1="88.0" x2="89.0" y2="93.0" stroke="#c3c2b7" stroke-width="1" stroke-linecap="round"/>
<text x="89.0" y="105.0" font-size="7.5" fill="#898781" text-anchor="middle" font-weight="400">-18</text>
<line x1="138.0" y1="88.0" x2="138.0" y2="93.0" stroke="#c3c2b7" stroke-width="1" stroke-linecap="round"/>
<text x="138.0" y="105.0" font-size="7.5" fill="#898781" text-anchor="middle" font-weight="400">-16</text>
<line x1="187.0" y1="88.0" x2="187.0" y2="93.0" stroke="#c3c2b7" stroke-width="1" stroke-linecap="round"/>
<text x="187.0" y="105.0" font-size="7.5" fill="#898781" text-anchor="middle" font-weight="400">-14</text>
<line x1="236.0" y1="88.0" x2="236.0" y2="93.0" stroke="#c3c2b7" stroke-width="1" stroke-linecap="round"/>
<text x="236.0" y="105.0" font-size="7.5" fill="#898781" text-anchor="middle" font-weight="400">-12</text>
<line x1="285.0" y1="88.0" x2="285.0" y2="93.0" stroke="#c3c2b7" stroke-width="1" stroke-linecap="round"/>
<text x="285.0" y="105.0" font-size="7.5" fill="#898781" text-anchor="middle" font-weight="400">-10</text>
<line x1="334.0" y1="88.0" x2="334.0" y2="93.0" stroke="#c3c2b7" stroke-width="1" stroke-linecap="round"/>
<text x="334.0" y="105.0" font-size="7.5" fill="#898781" text-anchor="middle" font-weight="400">-8</text>
<line x1="383.0" y1="88.0" x2="383.0" y2="93.0" stroke="#c3c2b7" stroke-width="1" stroke-linecap="round"/>
<text x="383.0" y="105.0" font-size="7.5" fill="#898781" text-anchor="middle" font-weight="400">-6</text>
<line x1="432.0" y1="88.0" x2="432.0" y2="93.0" stroke="#c3c2b7" stroke-width="1" stroke-linecap="round"/>
<text x="432.0" y="105.0" font-size="7.5" fill="#898781" text-anchor="middle" font-weight="400">-4</text>
<line x1="481.0" y1="88.0" x2="481.0" y2="93.0" stroke="#c3c2b7" stroke-width="1" stroke-linecap="round"/>
<text x="481.0" y="105.0" font-size="7.5" fill="#898781" text-anchor="middle" font-weight="400">-2</text>
<line x1="530.0" y1="88.0" x2="530.0" y2="93.0" stroke="#c3c2b7" stroke-width="1" stroke-linecap="round"/>
<text x="530.0" y="105.0" font-size="7.5" fill="#898781" text-anchor="middle" font-weight="400">rajt</text>
<text x="138.0" y="120.0" font-size="8.5" fill="#52514e" text-anchor="middle" font-weight="400">hét a versenydátumig</text>
<line x1="407.5" y1="86.0" x2="407.5" y2="124.0" stroke="#2a78d6" stroke-width="1.1" stroke-linecap="round" stroke-dasharray="3 2"/>
<circle cx="407.5" cy="124.0" r="2.6" fill="#2a78d6"/>
<text x="401.5" y="128.0" font-size="7.8" fill="#52514e" text-anchor="end" font-weight="400">600-as brevet (legkésőbb −4…−6. hét)</text>
<line x1="419.8" y1="86.0" x2="419.8" y2="139.0" stroke="#eb6834" stroke-width="1.1" stroke-linecap="round" stroke-dasharray="3 2"/>
<circle cx="419.8" cy="139.0" r="2.6" fill="#eb6834"/>
<text x="413.8" y="143.0" font-size="7.8" fill="#52514e" text-anchor="end" font-weight="400">terhelés-csúcs (−4…−6. hét)</text>
<line x1="432.0" y1="86.0" x2="432.0" y2="154.0" stroke="#0d366b" stroke-width="1.1" stroke-linecap="round" stroke-dasharray="3 2"/>
<circle cx="432.0" cy="154.0" r="2.6" fill="#0d366b"/>
<text x="426.0" y="158.0" font-size="7.8" fill="#52514e" text-anchor="end" font-weight="400">2–4 napos főpróba</text>
<line x1="490.8" y1="86.0" x2="490.8" y2="169.0" stroke="#1baf7a" stroke-width="1.1" stroke-linecap="round" stroke-dasharray="3 2"/>
<circle cx="490.8" cy="169.0" r="2.6" fill="#1baf7a"/>
<text x="484.8" y="173.0" font-size="7.8" fill="#52514e" text-anchor="end" font-weight="400">utolsó hosszú (−10–14. nap)</text>
<line x1="503.1" y1="86.0" x2="503.1" y2="184.0" stroke="#ec835a" stroke-width="1.1" stroke-linecap="round" stroke-dasharray="3 2"/>
<circle cx="503.1" cy="184.0" r="2.6" fill="#ec835a"/>
<text x="497.1" y="188.0" font-size="7.8" fill="#52514e" text-anchor="end" font-weight="400">hőblokk (opció, 10–14 nap)</text>
<rect x="171.0" y="216.0" width="32.0" height="16.0" rx="3" fill="#2a78d6" fill-opacity="0.25"/>
<text x="187.0" y="228.0" font-size="8" fill="#0b0b0b" text-anchor="middle" font-weight="600">200</text>
<rect x="244.5" y="216.0" width="32.0" height="16.0" rx="3" fill="#2a78d6" fill-opacity="0.4"/>
<text x="260.5" y="228.0" font-size="8" fill="#0b0b0b" text-anchor="middle" font-weight="600">300</text>
<rect x="318.0" y="216.0" width="32.0" height="16.0" rx="3" fill="#2a78d6" fill-opacity="0.55"/>
<text x="334.0" y="228.0" font-size="8" fill="#0b0b0b" text-anchor="middle" font-weight="600">400</text>
<rect x="391.5" y="216.0" width="32.0" height="16.0" rx="3" fill="#2a78d6" fill-opacity="0.7"/>
<text x="407.5" y="228.0" font-size="8" fill="#0b0b0b" text-anchor="middle" font-weight="600">600</text>
<text x="40.0" y="228.0" font-size="8.5" fill="#52514e" text-anchor="start" font-weight="400">brevet-lépcső:</text>
<text x="40.0" y="24.0" font-size="9" fill="#52514e" text-anchor="start" font-weight="600">a felkészülés visszafelé tervezve (16–24 hét; edzői keret, C) — az ütemterv-generátor ezt tölti ki dátumokkal</text>
</svg>
