<?xml version="1.0" encoding="UTF-8"?>
<svg viewBox="0 0 560 250" xmlns="http://www.w3.org/2000/svg" font-family="{{FONT}}">
<line x1="48.0" y1="163.3" x2="300.0" y2="163.3" stroke="#e1e0d9" stroke-width="1" stroke-linecap="round"/>
<text x="43.0" y="166.8" font-size="8.5" fill="#898781" text-anchor="end" font-weight="400">60 %</text>
<line x1="48.0" y1="110.0" x2="300.0" y2="110.0" stroke="#e1e0d9" stroke-width="1" stroke-linecap="round"/>
<text x="43.0" y="113.5" font-size="8.5" fill="#898781" text-anchor="end" font-weight="400">80 %</text>
<line x1="48.0" y1="56.7" x2="300.0" y2="56.7" stroke="#e1e0d9" stroke-width="1" stroke-linecap="round"/>
<text x="43.0" y="60.2" font-size="8.5" fill="#898781" text-anchor="end" font-weight="400">100 %</text>
<line x1="48.0" y1="190.0" x2="48.0" y2="194.0" stroke="#c3c2b7" stroke-width="1" stroke-linecap="round"/>
<text x="48.0" y="205.0" font-size="8.5" fill="#898781" text-anchor="middle" font-weight="400">0 h</text>
<line x1="90.0" y1="190.0" x2="90.0" y2="194.0" stroke="#c3c2b7" stroke-width="1" stroke-linecap="round"/>
<text x="90.0" y="205.0" font-size="8.5" fill="#898781" text-anchor="middle" font-weight="400">4 h</text>
<line x1="142.5" y1="190.0" x2="142.5" y2="194.0" stroke="#c3c2b7" stroke-width="1" stroke-linecap="round"/>
<text x="142.5" y="205.0" font-size="8.5" fill="#898781" text-anchor="middle" font-weight="400">9 h</text>
<line x1="279.0" y1="190.0" x2="279.0" y2="194.0" stroke="#c3c2b7" stroke-width="1" stroke-linecap="round"/>
<text x="279.0" y="205.0" font-size="8.5" fill="#898781" text-anchor="middle" font-weight="400">22 h</text>
<line x1="300.0" y1="190.0" x2="300.0" y2="194.0" stroke="#c3c2b7" stroke-width="1" stroke-linecap="round"/>
<text x="300.0" y="205.0" font-size="8.5" fill="#898781" text-anchor="middle" font-weight="400">24 h</text>
<line x1="48.0" y1="190.0" x2="300.0" y2="190.0" stroke="#c3c2b7" stroke-width="1" stroke-linecap="round"/>
<rect x="90.0" y="30.0" width="52.5" height="160.0" rx="0" fill="#eb6834" fill-opacity="0.08"/>
<text x="116.2" y="42.0" font-size="8" fill="#52514e" text-anchor="middle" font-weight="600">4–9. óra: a legnagyobb esés</text>
<path d="M48.0 56.7 L90.0 64.7 L142.5 115.3 L279.0 142.0 L300.0 155.3" fill="none" stroke="#2a78d6" stroke-width="2.4" stroke-linejoin="round" stroke-linecap="round" opacity="1"/>
<path d="M48.0 56.7 L90.0 67.3 L142.5 94.0 L279.0 112.7 L300.0 115.3" fill="none" stroke="#eb6834" stroke-width="2.4" stroke-linejoin="round" stroke-linecap="round" opacity="1"/>
<text x="184.5" y="131.3" font-size="9" fill="#2a78d6" text-anchor="start" font-weight="600">teljesítmény −37 %</text>
<text x="184.5" y="94.0" font-size="9" fill="#eb6834" text-anchor="start" font-weight="600">pulzus −22 %</text>
<text x="48.0" y="18.0" font-size="9.5" fill="#52514e" text-anchor="start" font-weight="600">24 óra folyamatosan — a rajt %-ában (elit versenyző, n = 1)</text>
<text x="174.0" y="220.0" font-size="9" fill="#52514e" text-anchor="middle" font-weight="400">ébren töltött óra a rajttól</text>
<line x1="350.0" y1="163.3" x2="540.0" y2="163.3" stroke="#e1e0d9" stroke-width="1" stroke-linecap="round"/>
<text x="345.0" y="166.8" font-size="8.5" fill="#898781" text-anchor="end" font-weight="400">100 km</text>
<line x1="350.0" y1="96.7" x2="540.0" y2="96.7" stroke="#e1e0d9" stroke-width="1" stroke-linecap="round"/>
<text x="345.0" y="100.2" font-size="8.5" fill="#898781" text-anchor="end" font-weight="400">150 km</text>
<line x1="350.0" y1="30.0" x2="540.0" y2="30.0" stroke="#e1e0d9" stroke-width="1" stroke-linecap="round"/>
<text x="345.0" y="33.5" font-size="8.5" fill="#898781" text-anchor="end" font-weight="400">200 km</text>
<line x1="373.8" y1="190.0" x2="373.8" y2="194.0" stroke="#c3c2b7" stroke-width="1" stroke-linecap="round"/>
<text x="373.8" y="205.0" font-size="8.5" fill="#898781" text-anchor="middle" font-weight="400">1,0×</text>
<line x1="421.3" y1="190.0" x2="421.3" y2="194.0" stroke="#c3c2b7" stroke-width="1" stroke-linecap="round"/>
<text x="421.3" y="205.0" font-size="8.5" fill="#898781" text-anchor="middle" font-weight="400">1,1×</text>
<line x1="468.7" y1="190.0" x2="468.7" y2="194.0" stroke="#c3c2b7" stroke-width="1" stroke-linecap="round"/>
<text x="468.7" y="205.0" font-size="8.5" fill="#898781" text-anchor="middle" font-weight="400">1,2×</text>
<line x1="516.2" y1="190.0" x2="516.2" y2="194.0" stroke="#c3c2b7" stroke-width="1" stroke-linecap="round"/>
<text x="516.2" y="205.0" font-size="8.5" fill="#898781" text-anchor="middle" font-weight="400">1,3×</text>
<line x1="350.0" y1="190.0" x2="540.0" y2="190.0" stroke="#c3c2b7" stroke-width="1" stroke-linecap="round"/>
<circle cx="400.9" cy="40.6" r="2.6" fill="#2a78d6" fill-opacity="0.45"/>
<circle cx="478.1" cy="108.7" r="2.6" fill="#2a78d6" fill-opacity="0.45"/>
<circle cx="378.0" cy="32.7" r="2.6" fill="#2a78d6" fill-opacity="0.45"/>
<circle cx="398.1" cy="32.7" r="2.6" fill="#2a78d6" fill-opacity="0.45"/>
<circle cx="467.9" cy="118.8" r="2.6" fill="#2a78d6" fill-opacity="0.45"/>
<circle cx="444.2" cy="76.5" r="2.6" fill="#2a78d6" fill-opacity="0.45"/>
<circle cx="395.3" cy="42.1" r="2.6" fill="#2a78d6" fill-opacity="0.45"/>
<circle cx="402.1" cy="58.0" r="2.6" fill="#2a78d6" fill-opacity="0.45"/>
<circle cx="367.5" cy="32.7" r="2.6" fill="#2a78d6" fill-opacity="0.45"/>
<circle cx="509.9" cy="110.7" r="2.6" fill="#2a78d6" fill-opacity="0.45"/>
<circle cx="425.5" cy="57.1" r="2.6" fill="#2a78d6" fill-opacity="0.45"/>
<circle cx="524.4" cy="130.8" r="2.6" fill="#2a78d6" fill-opacity="0.45"/>
<circle cx="374.4" cy="44.0" r="2.6" fill="#2a78d6" fill-opacity="0.45"/>
<circle cx="471.0" cy="113.7" r="2.6" fill="#2a78d6" fill-opacity="0.45"/>
<circle cx="418.9" cy="71.1" r="2.6" fill="#2a78d6" fill-opacity="0.45"/>
<circle cx="469.2" cy="120.3" r="2.6" fill="#2a78d6" fill-opacity="0.45"/>
<circle cx="509.8" cy="138.6" r="2.6" fill="#2a78d6" fill-opacity="0.45"/>
<circle cx="374.6" cy="36.0" r="2.6" fill="#2a78d6" fill-opacity="0.45"/>
<circle cx="517.0" cy="147.1" r="2.6" fill="#2a78d6" fill-opacity="0.45"/>
<circle cx="517.0" cy="134.0" r="2.6" fill="#2a78d6" fill-opacity="0.45"/>
<circle cx="457.8" cy="96.7" r="2.6" fill="#2a78d6" fill-opacity="0.45"/>
<circle cx="410.4" cy="95.2" r="2.6" fill="#2a78d6" fill-opacity="0.45"/>
<circle cx="421.9" cy="58.1" r="2.6" fill="#2a78d6" fill-opacity="0.45"/>
<circle cx="487.7" cy="120.4" r="2.6" fill="#2a78d6" fill-opacity="0.45"/>
<circle cx="380.0" cy="45.5" r="2.6" fill="#2a78d6" fill-opacity="0.45"/>
<circle cx="517.7" cy="162.3" r="2.6" fill="#2a78d6" fill-opacity="0.45"/>
<circle cx="500.5" cy="135.1" r="2.6" fill="#2a78d6" fill-opacity="0.45"/>
<circle cx="388.5" cy="41.3" r="2.6" fill="#2a78d6" fill-opacity="0.45"/>
<circle cx="449.6" cy="92.8" r="2.6" fill="#2a78d6" fill-opacity="0.45"/>
<circle cx="510.1" cy="130.2" r="2.6" fill="#2a78d6" fill-opacity="0.45"/>
<circle cx="446.2" cy="87.1" r="2.6" fill="#2a78d6" fill-opacity="0.45"/>
<circle cx="403.6" cy="64.6" r="2.6" fill="#2a78d6" fill-opacity="0.45"/>
<circle cx="366.2" cy="32.9" r="2.6" fill="#2a78d6" fill-opacity="0.45"/>
<circle cx="432.6" cy="61.0" r="2.6" fill="#2a78d6" fill-opacity="0.45"/>
<circle cx="425.1" cy="47.9" r="2.6" fill="#2a78d6" fill-opacity="0.45"/>
<circle cx="392.6" cy="77.9" r="2.6" fill="#2a78d6" fill-opacity="0.45"/>
<circle cx="428.2" cy="56.2" r="2.6" fill="#2a78d6" fill-opacity="0.45"/>
<circle cx="521.7" cy="114.4" r="2.6" fill="#2a78d6" fill-opacity="0.45"/>
<circle cx="396.8" cy="45.5" r="2.6" fill="#2a78d6" fill-opacity="0.45"/>
<circle cx="366.4" cy="40.6" r="2.6" fill="#2a78d6" fill-opacity="0.45"/>
<circle cx="487.7" cy="119.6" r="2.6" fill="#2a78d6" fill-opacity="0.45"/>
<circle cx="434.6" cy="65.1" r="2.6" fill="#2a78d6" fill-opacity="0.45"/>
<circle cx="401.7" cy="67.8" r="2.6" fill="#2a78d6" fill-opacity="0.45"/>
<circle cx="431.8" cy="61.7" r="2.6" fill="#2a78d6" fill-opacity="0.45"/>
<circle cx="459.3" cy="94.7" r="2.6" fill="#2a78d6" fill-opacity="0.45"/>
<circle cx="378.0" cy="32.7" r="2.6" fill="#2a78d6" fill-opacity="0.45"/>
<circle cx="381.5" cy="53.4" r="2.6" fill="#2a78d6" fill-opacity="0.45"/>
<circle cx="494.7" cy="120.8" r="2.6" fill="#2a78d6" fill-opacity="0.45"/>
<circle cx="445.8" cy="96.4" r="2.6" fill="#2a78d6" fill-opacity="0.45"/>
<circle cx="374.4" cy="81.2" r="2.6" fill="#2a78d6" fill-opacity="0.45"/>
<circle cx="367.0" cy="32.7" r="2.6" fill="#2a78d6" fill-opacity="0.45"/>
<circle cx="456.9" cy="76.7" r="2.6" fill="#2a78d6" fill-opacity="0.45"/>
<circle cx="484.4" cy="139.8" r="2.6" fill="#2a78d6" fill-opacity="0.45"/>
<circle cx="364.7" cy="32.7" r="2.6" fill="#2a78d6" fill-opacity="0.45"/>
<circle cx="499.2" cy="112.4" r="2.6" fill="#2a78d6" fill-opacity="0.45"/>
<circle cx="369.6" cy="32.7" r="2.6" fill="#2a78d6" fill-opacity="0.45"/>
<circle cx="520.1" cy="133.7" r="2.6" fill="#2a78d6" fill-opacity="0.45"/>
<circle cx="457.9" cy="148.5" r="2.6" fill="#2a78d6" fill-opacity="0.45"/>
<circle cx="393.0" cy="32.7" r="2.6" fill="#2a78d6" fill-opacity="0.45"/>
<circle cx="377.7" cy="36.9" r="2.6" fill="#2a78d6" fill-opacity="0.45"/>
<line x1="364.2" y1="32.7" x2="525.8" y2="147.3" stroke="#eb6834" stroke-width="2.2" stroke-linecap="round"/>
<text x="350.0" y="18.0" font-size="9.5" fill="#52514e" text-anchor="start" font-weight="600">első 2 óra a saját átlaghoz képest (501 futó)</text>
<text x="445.0" y="220.0" font-size="9" fill="#52514e" text-anchor="middle" font-weight="400">rajt-tempó / saját átlag</text>
<text x="540.0" y="43.3" font-size="9.5" fill="#eb6834" text-anchor="end" font-weight="600">r = −0,58</text>
<text x="354.0" y="44.0" font-size="8" fill="#898781" text-anchor="start" font-weight="400">sematikus</text>
</svg>
