<?xml version="1.0" encoding="UTF-8"?>
<svg viewBox="0 0 560 220" xmlns="http://www.w3.org/2000/svg" font-family="{{FONT}}">
<line x1="60.0" y1="146.7" x2="540.0" y2="146.7" stroke="#e1e0d9" stroke-width="1" stroke-linecap="round"/>
<text x="55.0" y="150.2" font-size="8.5" fill="#898781" text-anchor="end" font-weight="400">50 perc</text>
<line x1="60.0" y1="100.0" x2="540.0" y2="100.0" stroke="#e1e0d9" stroke-width="1" stroke-linecap="round"/>
<text x="55.0" y="103.5" font-size="8.5" fill="#898781" text-anchor="end" font-weight="400">70 perc</text>
<line x1="60.0" y1="53.3" x2="540.0" y2="53.3" stroke="#e1e0d9" stroke-width="1" stroke-linecap="round"/>
<text x="55.0" y="56.8" font-size="8.5" fill="#898781" text-anchor="end" font-weight="400">90 perc</text>
<line x1="60.0" y1="170.0" x2="60.0" y2="174.0" stroke="#c3c2b7" stroke-width="1" stroke-linecap="round"/>
<text x="60.0" y="185.0" font-size="8.5" fill="#898781" text-anchor="middle" font-weight="400">0 °C</text>
<line x1="128.6" y1="170.0" x2="128.6" y2="174.0" stroke="#c3c2b7" stroke-width="1" stroke-linecap="round"/>
<text x="128.6" y="185.0" font-size="8.5" fill="#898781" text-anchor="middle" font-weight="400">5 °C</text>
<line x1="197.1" y1="170.0" x2="197.1" y2="174.0" stroke="#c3c2b7" stroke-width="1" stroke-linecap="round"/>
<text x="197.1" y="185.0" font-size="8.5" fill="#898781" text-anchor="middle" font-weight="400">10 °C</text>
<line x1="265.7" y1="170.0" x2="265.7" y2="174.0" stroke="#c3c2b7" stroke-width="1" stroke-linecap="round"/>
<text x="265.7" y="185.0" font-size="8.5" fill="#898781" text-anchor="middle" font-weight="400">15 °C</text>
<line x1="334.3" y1="170.0" x2="334.3" y2="174.0" stroke="#c3c2b7" stroke-width="1" stroke-linecap="round"/>
<text x="334.3" y="185.0" font-size="8.5" fill="#898781" text-anchor="middle" font-weight="400">20 °C</text>
<line x1="402.9" y1="170.0" x2="402.9" y2="174.0" stroke="#c3c2b7" stroke-width="1" stroke-linecap="round"/>
<text x="402.9" y="185.0" font-size="8.5" fill="#898781" text-anchor="middle" font-weight="400">25 °C</text>
<line x1="471.4" y1="170.0" x2="471.4" y2="174.0" stroke="#c3c2b7" stroke-width="1" stroke-linecap="round"/>
<text x="471.4" y="185.0" font-size="8.5" fill="#898781" text-anchor="middle" font-weight="400">30 °C</text>
<line x1="540.0" y1="170.0" x2="540.0" y2="174.0" stroke="#c3c2b7" stroke-width="1" stroke-linecap="round"/>
<text x="540.0" y="185.0" font-size="8.5" fill="#898781" text-anchor="middle" font-weight="400">35 °C</text>
<line x1="60.0" y1="170.0" x2="540.0" y2="170.0" stroke="#c3c2b7" stroke-width="1" stroke-linecap="round"/>
<rect x="197.1" y="30.0" width="137.1" height="140.0" rx="0" fill="#1baf7a" fill-opacity="0.08"/>
<text x="265.7" y="162.0" font-size="8.5" fill="#52514e" text-anchor="middle" font-weight="600">olcsó kilométer</text>
<rect x="471.4" y="30.0" width="68.6" height="140.0" rx="0" fill="#d03b3b" fill-opacity="0.08"/>
<rect x="60.0" y="30.0" width="68.6" height="140.0" rx="0" fill="#2a78d6" fill-opacity="0.08"/>
<path d="M87.4 93.0 L91.5 89.7 L95.7 86.5 L99.8 83.4 L103.9 80.4 L108.0 77.6 L112.1 74.9 L116.2 72.3 L120.3 69.8 L124.5 67.4 L128.6 65.2 L132.7 63.1 L136.8 61.1 L140.9 59.2 L145.0 57.4 L149.1 55.8 L153.3 54.2 L157.4 52.8 L161.5 51.5 L165.6 50.4 L169.7 49.3 L173.8 48.4 L177.9 47.6 L182.1 46.9 L186.2 46.3 L190.3 45.8 L194.4 45.5 L198.5 45.3 L202.6 45.2 L206.7 45.2 L210.9 45.4 L215.0 45.7 L219.1 46.1 L223.2 46.6 L227.3 47.1 L231.4 47.6 L235.5 48.2 L239.7 48.9 L243.8 49.6 L247.9 50.4 L252.0 51.2 L256.1 52.0 L260.2 52.9 L264.3 53.8 L268.5 54.8 L272.6 55.8 L276.7 56.8 L280.8 57.9 L284.9 59.0 L289.0 60.2 L293.1 61.4 L297.3 62.6 L301.4 63.8 L305.5 65.1 L309.6 66.4 L313.7 67.7 L317.8 69.1 L321.9 70.5 L326.1 71.9 L330.2 73.4 L334.3 74.9 L338.4 76.4 L342.5 77.9 L346.6 79.5 L350.7 81.1 L354.9 82.7 L359.0 84.4 L363.1 86.1 L367.2 87.8 L371.3 89.5 L375.4 91.3 L379.5 93.0 L383.7 94.8 L387.8 96.7 L391.9 98.5 L396.0 100.4 L400.1 102.3 L404.2 104.3 L408.3 106.2 L412.5 108.2 L416.6 110.2 L420.7 112.2 L424.8 114.3 L428.9 116.3 L433.0 118.4 L437.1 120.5 L441.3 122.7 L445.4 124.8 L449.5 127.0 L453.6 129.2 L457.7 131.5 L461.8 133.7 L465.9 136.0 L470.1 138.3 L474.2 140.6 L478.3 142.9 L482.4 145.3 L486.5 147.7 L490.6 150.1 L494.7 152.5 L498.9 154.9" fill="none" stroke="#2a78d6" stroke-width="2.4" stroke-linejoin="round" stroke-linecap="round" opacity="1"/>
<circle cx="204.0" cy="45.2" r="4.5" fill="#2a78d6" stroke="#fff" stroke-width="1.5"/>
<text x="212.0" y="39.2" font-size="8.5" fill="#0b0b0b" text-anchor="start" font-weight="600">10,5 °C · 93,5 perc</text>
<circle cx="478.3" cy="142.9" r="4.5" fill="#2a78d6" stroke="#fff" stroke-width="1.5"/>
<text x="486.3" y="145.9" font-size="8.5" fill="#0b0b0b" text-anchor="start" font-weight="600">30,5 °C · 51,6 perc</text>
<circle cx="114.9" cy="76.7" r="4" fill="#fff" stroke="#2a78d6" stroke-width="1.5"/>
<circle cx="348.0" cy="76.7" r="4" fill="#fff" stroke="#2a78d6" stroke-width="1.5"/>
<text x="122.9" y="88.7" font-size="8.5" fill="#52514e" text-anchor="start" font-weight="400">4 °C: rövidebb, mint 11 °C-on (érték becsült)</text>
<text x="60.0" y="18.0" font-size="9.5" fill="#52514e" text-anchor="start" font-weight="600">kimerülésig tartó tekerés a kimerülési teljesítmény 70 %-án (8 férfi) — a köztes pontok sematikusak</text>
<text x="300.0" y="200.0" font-size="9" fill="#52514e" text-anchor="middle" font-weight="400">levegő-hőmérséklet</text>
</svg>
