<?xml version="1.0" encoding="UTF-8"?>
<svg viewBox="0 0 560 262" xmlns="http://www.w3.org/2000/svg" font-family="{{FONT}}">
<line x1="52.0" y1="184.5" x2="330.0" y2="184.5" stroke="#e1e0d9" stroke-width="1" stroke-linecap="round"/>
<text x="47.0" y="188.0" font-size="8.5" fill="#898781" text-anchor="end" font-weight="400">20 km/h</text>
<line x1="52.0" y1="145.9" x2="330.0" y2="145.9" stroke="#e1e0d9" stroke-width="1" stroke-linecap="round"/>
<text x="47.0" y="149.4" font-size="8.5" fill="#898781" text-anchor="end" font-weight="400">25 km/h</text>
<line x1="52.0" y1="107.3" x2="330.0" y2="107.3" stroke="#e1e0d9" stroke-width="1" stroke-linecap="round"/>
<text x="47.0" y="110.8" font-size="8.5" fill="#898781" text-anchor="end" font-weight="400">30 km/h</text>
<line x1="52.0" y1="68.6" x2="330.0" y2="68.6" stroke="#e1e0d9" stroke-width="1" stroke-linecap="round"/>
<text x="47.0" y="72.1" font-size="8.5" fill="#898781" text-anchor="end" font-weight="400">35 km/h</text>
<line x1="52.0" y1="30.0" x2="330.0" y2="30.0" stroke="#e1e0d9" stroke-width="1" stroke-linecap="round"/>
<text x="47.0" y="33.5" font-size="8.5" fill="#898781" text-anchor="end" font-weight="400">40 km/h</text>
<line x1="82.9" y1="200.0" x2="82.9" y2="204.0" stroke="#c3c2b7" stroke-width="1" stroke-linecap="round"/>
<text x="82.9" y="215.0" font-size="8.5" fill="#898781" text-anchor="middle" font-weight="400">100 W</text>
<line x1="160.1" y1="200.0" x2="160.1" y2="204.0" stroke="#c3c2b7" stroke-width="1" stroke-linecap="round"/>
<text x="160.1" y="215.0" font-size="8.5" fill="#898781" text-anchor="middle" font-weight="400">150 W</text>
<line x1="237.3" y1="200.0" x2="237.3" y2="204.0" stroke="#c3c2b7" stroke-width="1" stroke-linecap="round"/>
<text x="237.3" y="215.0" font-size="8.5" fill="#898781" text-anchor="middle" font-weight="400">200 W</text>
<line x1="314.6" y1="200.0" x2="314.6" y2="204.0" stroke="#c3c2b7" stroke-width="1" stroke-linecap="round"/>
<text x="314.6" y="215.0" font-size="8.5" fill="#898781" text-anchor="middle" font-weight="400">250 W</text>
<line x1="52.0" y1="200.0" x2="330.0" y2="200.0" stroke="#c3c2b7" stroke-width="1" stroke-linecap="round"/>
<line x1="160.1" y1="200.0" x2="160.1" y2="30.0" stroke="#eb6834" stroke-width="1" stroke-linecap="round" stroke-dasharray="3 3"/>
<path d="M52.0 147.1 L67.4 137.0 L82.9 127.6 L98.3 118.9 L113.8 110.8 L129.2 103.2 L144.7 95.9 L160.1 89.1 L175.6 82.5 L191.0 76.3 L206.4 70.3 L221.9 64.5 L237.3 58.9 L252.8 53.6 L268.2 48.4 L283.7 43.4 L299.1 38.5 L314.6 33.8 L330.0 29.2" fill="none" stroke="#0d366b" stroke-width="2.2" stroke-linejoin="round" stroke-linecap="round" opacity="1"/>
<circle cx="160.1" cy="89.1" r="3.5" fill="#0d366b" stroke="#fff" stroke-width="1.2"/>
<text x="153.1" y="86.1" font-size="8.5" fill="#0d366b" text-anchor="end" font-weight="600">32,4</text>
<path d="M52.0 164.5 L67.4 155.5 L82.9 147.3 L98.3 139.6 L113.8 132.4 L129.2 125.6 L144.7 119.2 L160.1 113.1 L175.6 107.3 L191.0 101.8 L206.4 96.5 L221.9 91.4 L237.3 86.4 L252.8 81.7 L268.2 77.1 L283.7 72.6 L299.1 68.3 L314.6 64.1 L330.0 60.1" fill="none" stroke="#2a78d6" stroke-width="2.2" stroke-linejoin="round" stroke-linecap="round" opacity="1"/>
<circle cx="160.1" cy="113.1" r="3.5" fill="#2a78d6" stroke="#fff" stroke-width="1.2"/>
<text x="167.1" y="109.1" font-size="8.5" fill="#2a78d6" text-anchor="start" font-weight="600">29,2</text>
<path d="M52.0 171.1 L67.4 162.5 L82.9 154.6 L98.3 147.3 L113.8 140.5 L129.2 134.0 L144.7 127.9 L160.1 122.1 L175.6 116.6 L191.0 111.3 L206.4 106.2 L221.9 101.4 L237.3 96.7 L252.8 92.1 L268.2 87.7 L283.7 83.5 L299.1 79.4 L314.6 75.4 L330.0 71.5" fill="none" stroke="#eda100" stroke-width="2.2" stroke-linejoin="round" stroke-linecap="round" opacity="1"/>
<circle cx="160.1" cy="122.1" r="3.5" fill="#eda100" stroke="#fff" stroke-width="1.2"/>
<text x="167.1" y="133.1" font-size="8.5" fill="#eda100" text-anchor="start" font-weight="600">28,1</text>
<text x="52.0" y="18.0" font-size="9.5" fill="#52514e" text-anchor="start" font-weight="600">síkon, 85 kg, Crr 0,005, szélcsend (Martin-modell)</text>
<text x="191.0" y="230.0" font-size="9" fill="#52514e" text-anchor="middle" font-weight="400">leadott teljesítmény</text>
<text x="460.0" y="18.0" font-size="9.5" fill="#52514e" text-anchor="middle" font-weight="600">150 W emelkedőn (CdA 0,35)</text>
<rect x="380.0" y="62.9" width="20.0" height="137.1" rx="2" fill="#0d366b" fill-opacity="0.9"/>
<text x="390.0" y="58.9" font-size="8" fill="#0b0b0b" text-anchor="middle" font-weight="600">29,2</text>
<text x="390.0" y="213.0" font-size="8" fill="#52514e" text-anchor="middle" font-weight="400">0 %</text>
<rect x="407.0" y="108.5" width="20.0" height="91.5" rx="2" fill="#2a78d6" fill-opacity="0.9"/>
<text x="417.0" y="104.5" font-size="8" fill="#0b0b0b" text-anchor="middle" font-weight="600">19,5</text>
<text x="417.0" y="213.0" font-size="8" fill="#52514e" text-anchor="middle" font-weight="400">2 %</text>
<rect x="434.0" y="138.6" width="20.0" height="61.4" rx="2" fill="#2a78d6" fill-opacity="0.9"/>
<text x="444.0" y="134.6" font-size="8" fill="#0b0b0b" text-anchor="middle" font-weight="600">13,1</text>
<text x="444.0" y="213.0" font-size="8" fill="#52514e" text-anchor="middle" font-weight="400">4 %</text>
<rect x="461.0" y="155.5" width="20.0" height="44.5" rx="2" fill="#2a78d6" fill-opacity="0.9"/>
<text x="471.0" y="151.5" font-size="8" fill="#0b0b0b" text-anchor="middle" font-weight="600">9,5</text>
<text x="471.0" y="213.0" font-size="8" fill="#52514e" text-anchor="middle" font-weight="400">6 %</text>
<rect x="488.0" y="165.5" width="20.0" height="34.5" rx="2" fill="#2a78d6" fill-opacity="0.9"/>
<text x="498.0" y="161.5" font-size="8" fill="#0b0b0b" text-anchor="middle" font-weight="600">7,4</text>
<text x="498.0" y="213.0" font-size="8" fill="#52514e" text-anchor="middle" font-weight="400">8 %</text>
<rect x="515.0" y="171.8" width="20.0" height="28.2" rx="2" fill="#2a78d6" fill-opacity="0.9"/>
<text x="525.0" y="167.8" font-size="8" fill="#0b0b0b" text-anchor="middle" font-weight="600">6,0</text>
<text x="525.0" y="213.0" font-size="8" fill="#52514e" text-anchor="middle" font-weight="400">10 %</text>
<line x1="374.0" y1="200.0" x2="545.0" y2="200.0" stroke="#c3c2b7" stroke-width="1" stroke-linecap="round"/>
<text x="460.0" y="228.0" font-size="8.5" fill="#898781" text-anchor="middle" font-weight="400">km/h · lejtés</text>
<rect x="52.0" y="246.0" width="10.0" height="10.0" rx="2" fill="#0d366b" fill-opacity="1"/>
<text x="66.0" y="255.0" font-size="8" fill="#52514e" text-anchor="start" font-weight="400">CdA 0,25 aerobar, minimális csomag</text>
<rect x="227.0" y="246.0" width="10.0" height="10.0" rx="2" fill="#2a78d6" fill-opacity="1"/>
<text x="241.0" y="255.0" font-size="8" fill="#52514e" text-anchor="start" font-weight="400">CdA 0,35 felsőfogás, jól pakolt táskák</text>
<rect x="402.0" y="246.0" width="10.0" height="10.0" rx="2" fill="#eda100" fill-opacity="1"/>
<text x="416.0" y="255.0" font-size="8" fill="#52514e" text-anchor="start" font-weight="400">CdA 0,40 terhelt alapérték</text>
</svg>
